# xmcd
#
# Track frame offsets:
#	182
#	15140
#	28275
#	41280
#	54752
#	67567
#	80365
#	93755
#	107372
#	119685
#	132112
#	144085
#	157102
#	169712
#	181880
#	194790
#	206820
#	219985
#	232827
#	244800
#	256997
#	268375
#	280612
#	293225
#	305680
#
# Disc length: 4247 seconds
#
# Revision: 0
# Processed by: cddbd v1.4PL0 Copyright (c) Steve Scherf et al.
# Submitted via: dBpowerAMP V4.0
#
DISCID=54109519
DTITLE=Merline Johnson  - Yas Yas Girl 1937-1941
DYEAR=2000
DGENRE=Blues
TTITLE0=Grandma and Grandpa 
TTITLE1=Jackass for Sale - Aletha Robinson p.
TTITLE2=You Got to Pay - Aletha Robinson p.
TTITLE3=New Drinking My Blues Away 
TTITLE4=Crime Don't Pay 
TTITLE5=Jelly Bean Blues 
TTITLE6=Running Down My Man - Black Bob p.
TTITLE7=Ol' Man Mose 
TTITLE8=Whiskey Fool 
TTITLE9=Grieving Heart Blues 
TTITLE10=Front Door Blues - Joshua Altheimer p.
TTITLE11=Mama's Bad Luck Child - Joshua Altheimer p.
TTITLE12=I Won't Sell My Love 
TTITLE13=Stop and Listen 
TTITLE14=Man to Man - Memphis Slim p.
TTITLE15=Evil Old Nightmare - Memphis Slim p.
TTITLE16=Sea Saw Blues - Memphis Slim p.
TTITLE17=Worried Heart Blues - Memphis Slim p.
TTITLE18=Got the Blues for My Baby - Memphis Slim p.
TTITLE19=Froggy Bottom 
TTITLE20=Blues Before Daybreak
TTITLE21=Two by Four Blues 
TTITLE22=Fighting Man Blues 
TTITLE23=Good Old Easy Street 
TTITLE24=How Can I Go On
EXTD=william hale
EXTT0=
EXTT1=
EXTT2=
EXTT3=
EXTT4=
EXTT5=
EXTT6=
EXTT7=
EXTT8=
EXTT9=
EXTT10=
EXTT11=
EXTT12=
EXTT13=
EXTT14=
EXTT15=
EXTT16=
EXTT17=
EXTT18=
EXTT19=
EXTT20=
EXTT21=
EXTT22=
EXTT23=
EXTT24=
PLAYORDER=
